<?xml version="1.0" encoding="UTF-8"?>
<svg id="Subway_Map" data-name="Subway Map" xmlns="http://www.w3.org/2000/svg" xmlns:xlink="http://www.w3.org/1999/xlink" viewBox="0 0 3744 4558.08">
  <defs>
    <style>
      .cls-1 {
        clip-path: url(#clippath);
      }

      .cls-2, .cls-3, .cls-4, .cls-5, .cls-6 {
        fill: none;
      }

      .cls-2, .cls-7, .cls-8, .cls-9, .cls-10 {
        stroke-width: 0px;
      }

      .cls-3 {
        stroke: #000;
      }

      .cls-3, .cls-5 {
        stroke-miterlimit: 13.33;
        stroke-width: 3px;
      }

      .cls-4 {
        stroke: #b149ab;
        stroke-width: 30px;
      }

      .cls-4, .cls-6 {
        stroke-linecap: square;
        stroke-linejoin: round;
      }

      .cls-5, .cls-6 {
        stroke: #fff;
      }

      .cls-6 {
        stroke-width: 20px;
      }

      .cls-7 {
        fill: #e6f4c3;
      }

      .cls-8 {
        fill: #fff;
      }

      .cls-9 {
        fill: #231f20;
      }

      .cls-10 {
        fill: #a8cdea;
      }
    </style>
    <clipPath id="clippath">
      <rect class="cls-2" width="3744" height="4558.08"/>
    </clipPath>
  </defs>
  <path id="Water" class="cls-10" d="M0,4558.08h3744V0H0v4558.08Z"/>
  <g class="cls-1">
    <g id="Land">
      <path id="path14" class="cls-8" d="M191.7,4055.39c0,7.22-1.37,14.12-4.13,20.79-2.76,6.67-6.67,12.52-11.78,17.62l-63.25,63.25c-5.1,5.1-9.02,10.96-11.78,17.63s-4.13,13.57-4.13,20.79v167.64c0,7.21,2.86,14.11,7.96,19.21s12,7.96,19.21,7.96h151.73c3.61,0,7.06-.69,10.39-2.07,3.33-1.38,6.26-3.34,8.81-5.89l624.74-624.74c5.1-5.1,7.96-12,7.96-19.21s-2.86-14.11-7.96-19.21l-229.69-230.88c-2.55-2.55-5.48-4.51-8.81-5.89s-6.79-2.07-10.39-2.07H246.03c-14.42,0-28.22,5.72-38.41,15.91s-15.91,24-15.91,38.41v520.75h0Z"/>
      <path id="path16" class="cls-8" d="M1196.72,1809.81c0-3.6-1.43-7.05-3.98-9.6s-6-3.98-9.6-3.98-7.05,1.43-9.6,3.98-3.98,6-3.98,9.6v312.37c0,3.6,1.43,7.06,3.98,9.6,2.55,2.55,6,3.98,9.6,3.98s7.05-1.43,9.6-3.98c2.55-2.55,3.98-6,3.98-9.6v-312.37h0Z"/>
      <path id="path18" class="cls-8" d="M490.49,791.21c0-37.5-30.4-67.91-67.91-67.91h-203.72c-15,0-27.16-12.16-27.16-27.16V-330.37l1847.06-.02V347.69c0,14.41,5.72,28.22,15.91,38.41l271.63,271.63c21.22,21.21,21.22,55.61,0,76.83l-679.07,692.65c-10.19,10.19-24.01,15.91-38.41,15.91h-655.6c-7.2,0-14.11-2.86-19.21-7.96l-431.53-431.53c-7.64-7.64-11.93-17.99-11.93-28.8l-.06-183.62h0Z"/>
      <path id="path20" class="cls-8" d="M1142.4,2340.85v-829.82c0-15.01-12.16-27.17-27.17-27.17h-162c-18.01,0-35.28-7.15-48.02-19.89l-435.57-435.57c-12.73-12.73-19.89-30.01-19.89-48.02v-189.17c0-15-12.16-27.16-27.16-27.16h-203.71c-15.01,0-27.17,12.16-27.17,27.17v1892.46c0,14.41,5.72,28.23,15.91,38.42l665.48,665.48c21.22,21.22,55.62,21.22,76.83,0l366.69-366.69c10.19-10.19,15.91-24.01,15.91-38.42v-383.97c0-18.01-7.15-35.28-19.89-48.02l-3.93-3.93-138.48-138.48c-17.83-17.83-27.85-42.01-27.85-67.22"/>
      <path id="path22" class="cls-8" d="M1228.82,2329.99c0,10.8,4.29,21.17,11.93,28.8l138.42,138.42c25.47,25.47,39.78,60.01,39.78,96.03v389.6c0,36.02-14.31,70.56-39.78,96.03l-107.29,107.29c-10.19,10.19-15.91,24.01-15.91,38.41v391.93c0,30,24.32,54.33,54.33,54.33h103.37c30,0,54.33,24.32,54.33,54.33v475.35c0,30,24.32,54.33,54.33,54.33h675.43c14.41,0,28.23,5.72,38.41,15.91l108.65,108.65c21.21,21.22,55.61,21.22,76.83,0l366.7-366.7c10.19-10.19,15.91-24.01,15.91-38.41v-634.06c0-14.41,5.72-28.23,15.91-38.41l603.2-605.53c17.11-17.11,46.37-4.99,46.37,19.21v310.44c0,14.41-5.72,28.22-15.91,38.41l-416.26,418.59c-10.19,10.19-15.91,24.01-15.91,38.41v192.47c0,24.2,29.26,36.32,46.37,19.21l944.97-944.97V-329.99l-117.3,2.99-1795.33,1795.33c-10.19,10.19-24.01,15.91-38.41,15.91h-805.96c-15,0-27.16,12.16-27.16,27.16v746.97c0,7.5,6.08,13.58,13.58,13.58h271.63c7.5,0,13.58,6.08,13.58,13.58s-6.08,13.58-13.58,13.58h-271.63c-7.5,0-13.58,6.08-13.58,13.58v17.29h-.02Z"/>
      <path id="path36" class="cls-8" d="M3329.64,2883.91v146.36c0,12.1,14.63,18.16,23.19,9.6l53.02-52.47c2.55-2.55,3.98-6,3.98-9.6v-93.89c0-7.5-6.08-13.58-13.58-13.58h-53.02c-7.5,0-13.58,6.08-13.58,13.58"/>
    </g>
  </g>
  <g id="Parks">
    <path id="path24" class="cls-7" d="M836.04,1998.12h-355.23c-6.82,0-12.35-5.53-12.35-12.35v-355.23c0-6.82,5.53-12.35,12.35-12.35h355.23c6.82,0,12.35,5.53,12.35,12.35v355.23c0,6.82-5.53,12.35-12.35,12.35"/>
    <path id="path26" class="cls-7" d="M1767.14,3467.16v62.36c0,3.28,1.3,6.42,3.62,8.74l47.12,47.07c2.31,2.31,5.45,3.61,8.72,3.61l30.57.02c3.23,0,6.34,1.27,8.64,3.54l56.68,55.66c4.89,4.8,12.75,4.71,17.52-.21l27.39-28.25c2.23-2.29,3.47-5.36,3.48-8.56l.2-71.37c0-3.3-1.3-6.46-3.63-8.78l-60.88-60.66c-2.31-2.31-5.45-3.6-8.71-3.6h-112.08c-3.29,0-6.44-1.31-8.76-3.64-3.63-3.66-9.87-1.08-9.87,4.07"/>
    <path id="path28" class="cls-7" d="M2231.66,1336.92l-67.77,68.04,215,215h190.04l149.39,149.54,27.16-27.5-230.73-230.72-108.8.19-174.29-174.55h0Z"/>
    <path id="path30" class="cls-7" d="M1387.01,913.18v-162.67l-150.04-150.41-82.47,79.57,28.64,30.05v203.46h203.87Z"/>
    <path id="path34" class="cls-7" d="M2800.08,2003.29l77.82,77.82c4.82,4.82,4.82,12.64,0,17.46l-200.16,200.16c-4.82,4.82-12.64,4.82-17.46,0l-77.82-77.81c-4.82-4.82-4.82-12.64,0-17.46l200.16-200.16c4.82-4.82,12.64-4.82,17.46,0"/>
  </g>
  <g id="Subway_Lines" data-name="Subway Lines">
    <g id="Flushing">
      <g id="Lines">
        <g id="Fill">
          <g id="_21-22" data-name=" 21-22">
            <line class="cls-4" x1="2323.97" y1="1470.28" x2="2374.32" y2="1419.93"/>
          </g>
          <g id="_20-21" data-name=" 20-21">
            <line class="cls-4" x1="2283.23" y1="1511.02" x2="2323.97" y2="1470.28"/>
          </g>
          <g id="_19-20" data-name=" 19-20">
            <line class="cls-4" x1="2242.48" y1="1551.77" x2="2283.23" y2="1511.02"/>
          </g>
          <g id="_18-19" data-name=" 18-19">
            <line class="cls-4" x1="2202.61" y1="1591.64" x2="2242.48" y2="1551.77"/>
          </g>
          <g id="_17-18" data-name=" 17-18">
            <line class="cls-4" x1="2161" y1="1633.25" x2="2202.61" y2="1591.64"/>
          </g>
          <g id="_16-17" data-name=" 16-17">
            <line class="cls-4" x1="2120.25" y1="1674" x2="2161" y2="1633.25"/>
          </g>
          <g id="_15-16" data-name=" 15-16">
            <line class="cls-4" x1="2063.35" y1="1730.9" x2="2120.25" y2="1674"/>
          </g>
          <g id="_14-15" data-name=" 14-15">
            <line class="cls-4" x1="1916.1" y1="1878.15" x2="2063.35" y2="1730.9"/>
          </g>
          <g id="_13-14" data-name=" 13-14">
            <line class="cls-4" x1="1875.79" y1="1918.46" x2="1916.1" y2="1878.15"/>
          </g>
          <g id="_12-13" data-name=" 12-13">
            <line class="cls-4" x1="1821.46" y1="1972.79" x2="1875.79" y2="1918.46"/>
          </g>
          <g id="_11-12" data-name=" 11-12">
            <path class="cls-4" d="M1761.19,2026.6c1.73-.34,3.43-.86,5.09-1.55,3.33-1.38,6.26-3.34,8.81-5.89l46.37-46.37"/>
          </g>
          <g id="_10-11" data-name=" 10-11">
            <path class="cls-4" d="M1713.07,2027.15l42.82-.03c1.8,0,3.57-.17,5.3-.52"/>
          </g>
          <g id="_9-10" data-name=" 9-10">
            <line class="cls-4" x1="1666.58" y1="2027.18" x2="1713.07" y2="2027.15"/>
          </g>
          <g id="_8-9" data-name=" 8-9">
            <polyline class="cls-4" points="1470.37 2027.32 1493.28 2027.32 1666.58 2027.18"/>
          </g>
          <g id="_7-8" data-name=" 7-8">
            <path class="cls-4" d="M1451.97,2134.19c1.79-3.62,2.79-7.7,2.79-12.01v-83.64c0-6.2,5.02-11.22,11.22-11.22h4.38"/>
          </g>
          <g id="_6-7" data-name=" 6-7">
            <path class="cls-4" d="M1386.39,2149.34h41.21c10.69,0,19.94-6.18,24.37-15.15"/>
          </g>
          <g id="_5-6" data-name=" 5-6">
            <line class="cls-4" x1="1291.31" y1="2149.34" x2="1386.39" y2="2149.34"/>
          </g>
          <g id="_4-5" data-name=" 4-5">
            <polyline class="cls-4" points="919.68 2149.34 1155.98 2149.34 1291.31 2149.34"/>
          </g>
          <g id="_3-4" data-name=" 3-4">
            <line class="cls-4" x1="822.61" y1="2149.34" x2="919.68" y2="2149.34"/>
          </g>
          <g id="_2-3" data-name=" 2-3">
            <line class="cls-4" x1="596.92" y1="2149.34" x2="822.61" y2="2149.34"/>
          </g>
          <g id="_1-2" data-name=" 1-2">
            <path class="cls-4" d="M232.45,2322.32v-159.4c0-7.5,6.08-13.58,13.58-13.58h350.9"/>
          </g>
        </g>
        <g id="White">
          <g id="_21-22-2" data-name=" 21-22-2">
            <line class="cls-6" x1="2323.97" y1="1470.28" x2="2374.32" y2="1419.93"/>
          </g>
          <g id="_20-21-2" data-name=" 20-21-2">
            <line class="cls-6" x1="2283.23" y1="1511.02" x2="2323.97" y2="1470.28"/>
          </g>
          <g id="_19-20-2" data-name=" 19-20-2">
            <line class="cls-6" x1="2242.48" y1="1551.77" x2="2283.23" y2="1511.02"/>
          </g>
          <g id="_18-19-2" data-name=" 18-19-2">
            <line class="cls-6" x1="2202.61" y1="1591.64" x2="2242.48" y2="1551.77"/>
          </g>
          <g id="_17-18-2" data-name=" 17-18-2">
            <line class="cls-6" x1="2161" y1="1633.25" x2="2202.61" y2="1591.64"/>
          </g>
          <g id="_16-17-2" data-name=" 16-17-2">
            <line class="cls-6" x1="2120.25" y1="1674" x2="2161" y2="1633.25"/>
          </g>
          <g id="_15-16-2" data-name=" 15-16-2">
            <line class="cls-6" x1="2063.35" y1="1730.9" x2="2120.25" y2="1674"/>
          </g>
          <g id="_14-15-2" data-name=" 14-15-2">
            <line class="cls-6" x1="1916.1" y1="1878.15" x2="2063.35" y2="1730.9"/>
          </g>
          <g id="_13-14-2" data-name=" 13-14-2">
            <line class="cls-6" x1="1875.79" y1="1918.46" x2="1916.1" y2="1878.15"/>
          </g>
          <g id="_12-13-2" data-name=" 12-13-2">
            <line class="cls-6" x1="1821.46" y1="1972.79" x2="1875.79" y2="1918.46"/>
          </g>
          <g id="_11-12-2" data-name=" 11-12-2">
            <path class="cls-6" d="M1761.19,2026.6c1.73-.34,3.43-.86,5.09-1.55,3.33-1.38,6.26-3.34,8.81-5.89l46.37-46.37"/>
          </g>
          <g id="_10-11-2" data-name=" 10-11-2">
            <path class="cls-6" d="M1713.07,2027.15l42.82-.03c1.8,0,3.57-.17,5.3-.52"/>
          </g>
          <g id="_9-10-2" data-name=" 9-10-2">
            <line class="cls-6" x1="1666.58" y1="2027.18" x2="1713.07" y2="2027.15"/>
          </g>
          <g id="_8-9-2" data-name=" 8-9-2">
            <polyline class="cls-6" points="1470.37 2027.32 1493.28 2027.32 1666.58 2027.18"/>
          </g>
          <g id="_7-8-2" data-name=" 7-8-2">
            <path class="cls-6" d="M1451.97,2134.19c1.79-3.62,2.79-7.7,2.79-12.01v-83.64c0-6.2,5.02-11.22,11.22-11.22h4.38"/>
          </g>
          <g id="_6-7-2" data-name=" 6-7-2">
            <path class="cls-6" d="M1386.39,2149.34h41.21c10.69,0,19.94-6.18,24.37-15.15"/>
          </g>
          <g id="_5-6-2" data-name=" 5-6-2">
            <line class="cls-6" x1="1291.31" y1="2149.34" x2="1386.39" y2="2149.34"/>
          </g>
          <g id="_4-5-2" data-name=" 4-5-2">
            <polyline class="cls-6" points="919.68 2149.34 1155.98 2149.34 1291.31 2149.34"/>
          </g>
          <g id="_3-4-2" data-name=" 3-4-2">
            <line class="cls-6" x1="822.61" y1="2149.34" x2="919.68" y2="2149.34"/>
          </g>
          <g id="_2-3-2" data-name=" 2-3-2">
            <line class="cls-6" x1="596.92" y1="2149.34" x2="822.61" y2="2149.34"/>
          </g>
          <g id="_1-2-2" data-name=" 1-2-2">
            <path class="cls-6" d="M232.45,2322.32v-159.4c0-7.5,6.08-13.58,13.58-13.58h350.9"/>
          </g>
        </g>
      </g>
      <g id="Stations">
        <g>
          <g id="path1406">
            <path class="cls-9" d="M1889.33,1918.46c0,7.48-6.06,13.54-13.54,13.54s-13.54-6.06-13.54-13.54,6.06-13.54,13.54-13.54,13.54,6.06,13.54,13.54"/>
            <path class="cls-5" d="M1889.33,1918.46c0,7.48-6.06,13.54-13.54,13.54s-13.54-6.06-13.54-13.54,6.06-13.54,13.54-13.54,13.54,6.06,13.54,13.54"/>
          </g>
          <g id="path1408">
            <path class="cls-9" d="M2076.89,1730.9c0,7.48-6.06,13.54-13.54,13.54s-13.54-6.06-13.54-13.54,6.06-13.54,13.54-13.54,13.54,6.06,13.54,13.54"/>
            <path class="cls-5" d="M2076.89,1730.9c0,7.48-6.06,13.54-13.54,13.54s-13.54-6.06-13.54-13.54,6.06-13.54,13.54-13.54,13.54,6.06,13.54,13.54"/>
          </g>
          <g id="path1410">
            <path class="cls-9" d="M836.15,2149.34c0,7.48-6.06,13.54-13.54,13.54s-13.54-6.06-13.54-13.54,6.06-13.54,13.54-13.54,13.54,6.06,13.54,13.54"/>
            <path class="cls-5" d="M836.15,2149.34c0,7.48-6.06,13.54-13.54,13.54s-13.54-6.06-13.54-13.54,6.06-13.54,13.54-13.54,13.54,6.06,13.54,13.54"/>
          </g>
          <g id="path1412">
            <path class="cls-9" d="M624.01,2149.34c0,7.48-6.06,13.54-13.54,13.54s-13.54-6.06-13.54-13.54,6.06-13.54,13.54-13.54,13.54,6.06,13.54,13.54"/>
            <path class="cls-5" d="M624.01,2149.34c0,7.48-6.06,13.54-13.54,13.54s-13.54-6.06-13.54-13.54,6.06-13.54,13.54-13.54,13.54,6.06,13.54,13.54"/>
          </g>
          <g id="path1414">
            <path class="cls-9" d="M1929.43,1878.15c0,7.48-6.06,13.54-13.54,13.54s-13.54-6.06-13.54-13.54,6.06-13.54,13.54-13.54,13.54,6.06,13.54,13.54"/>
            <path class="cls-5" d="M1929.43,1878.15c0,7.48-6.06,13.54-13.54,13.54s-13.54-6.06-13.54-13.54,6.06-13.54,13.54-13.54,13.54,6.06,13.54,13.54"/>
          </g>
          <g id="path1416">
            <path class="cls-9" d="M1835,1972.79c0,7.48-6.06,13.54-13.54,13.54s-13.54-6.06-13.54-13.54,6.06-13.54,13.54-13.54,13.54,6.06,13.54,13.54"/>
            <path class="cls-5" d="M1835,1972.79c0,7.48-6.06,13.54-13.54,13.54s-13.54-6.06-13.54-13.54,6.06-13.54,13.54-13.54,13.54,6.06,13.54,13.54"/>
          </g>
          <g id="path1418">
            <path class="cls-8" d="M1774.1,2027.11c0,7.48-6.06,13.54-13.54,13.54s-13.54-6.06-13.54-13.54,6.06-13.54,13.54-13.54,13.54,6.06,13.54,13.54"/>
            <path class="cls-3" d="M1774.1,2027.11c0,7.48-6.06,13.54-13.54,13.54s-13.54-6.06-13.54-13.54,6.06-13.54,13.54-13.54,13.54,6.06,13.54,13.54"/>
          </g>
          <g id="path1420">
            <path class="cls-9" d="M1726.61,2027.11c0,7.48-6.06,13.54-13.54,13.54s-13.54-6.06-13.54-13.54,6.06-13.54,13.54-13.54,13.54,6.06,13.54,13.54"/>
            <path class="cls-5" d="M1726.61,2027.11c0,7.48-6.06,13.54-13.54,13.54s-13.54-6.06-13.54-13.54,6.06-13.54,13.54-13.54,13.54,6.06,13.54,13.54"/>
          </g>
          <g id="path1422">
            <path class="cls-9" d="M1680.12,2027.11c0,7.48-6.06,13.54-13.54,13.54s-13.54-6.06-13.54-13.54,6.06-13.54,13.54-13.54,13.54,6.06,13.54,13.54"/>
            <path class="cls-5" d="M1680.12,2027.11c0,7.48-6.06,13.54-13.54,13.54s-13.54-6.06-13.54-13.54,6.06-13.54,13.54-13.54,13.54,6.06,13.54,13.54"/>
          </g>
          <g id="path1424">
            <path class="cls-9" d="M2133.79,1674c0,7.48-6.06,13.54-13.54,13.54s-13.54-6.06-13.54-13.54,6.06-13.54,13.54-13.54,13.54,6.06,13.54,13.54"/>
            <path class="cls-5" d="M2133.79,1674c0,7.48-6.06,13.54-13.54,13.54s-13.54-6.06-13.54-13.54,6.06-13.54,13.54-13.54,13.54,6.06,13.54,13.54"/>
          </g>
          <g id="path1426">
            <path class="cls-9" d="M2174.54,1633.25c0,7.48-6.06,13.54-13.54,13.54s-13.54-6.06-13.54-13.54,6.06-13.54,13.54-13.54,13.54,6.06,13.54,13.54"/>
            <path class="cls-5" d="M2174.54,1633.25c0,7.48-6.06,13.54-13.54,13.54s-13.54-6.06-13.54-13.54,6.06-13.54,13.54-13.54,13.54,6.06,13.54,13.54"/>
          </g>
          <g id="path1428">
            <path class="cls-9" d="M2215.28,1592.51c0,7.48-6.06,13.54-13.54,13.54s-13.54-6.06-13.54-13.54,6.06-13.54,13.54-13.54,13.54,6.06,13.54,13.54"/>
            <path class="cls-5" d="M2215.28,1592.51c0,7.48-6.06,13.54-13.54,13.54s-13.54-6.06-13.54-13.54,6.06-13.54,13.54-13.54,13.54,6.06,13.54,13.54"/>
          </g>
          <g id="path1430">
            <path class="cls-9" d="M2296.77,1511.02c0,7.48-6.06,13.54-13.54,13.54s-13.54-6.06-13.54-13.54,6.06-13.54,13.54-13.54,13.54,6.06,13.54,13.54"/>
            <path class="cls-5" d="M2296.77,1511.02c0,7.48-6.06,13.54-13.54,13.54s-13.54-6.06-13.54-13.54,6.06-13.54,13.54-13.54,13.54,6.06,13.54,13.54"/>
          </g>
          <g id="path1432">
            <path class="cls-9" d="M2256.03,1551.77c0,7.48-6.06,13.54-13.54,13.54s-13.54-6.06-13.54-13.54,6.06-13.54,13.54-13.54,13.54,6.06,13.54,13.54"/>
            <path class="cls-5" d="M2256.03,1551.77c0,7.48-6.06,13.54-13.54,13.54s-13.54-6.06-13.54-13.54,6.06-13.54,13.54-13.54,13.54,6.06,13.54,13.54"/>
          </g>
          <g id="path1434">
            <path class="cls-9" d="M2337.51,1470.28c0,7.48-6.06,13.54-13.54,13.54s-13.54-6.06-13.54-13.54,6.06-13.54,13.54-13.54,13.54,6.06,13.54,13.54"/>
            <path class="cls-5" d="M2337.51,1470.28c0,7.48-6.06,13.54-13.54,13.54s-13.54-6.06-13.54-13.54,6.06-13.54,13.54-13.54,13.54,6.06,13.54,13.54"/>
          </g>
          <g id="path1436">
            <path class="cls-9" d="M2378.26,1429.53c0,7.48-6.06,13.54-13.54,13.54s-13.54-6.06-13.54-13.54,6.06-13.54,13.54-13.54,13.54,6.06,13.54,13.54"/>
            <path class="cls-5" d="M2378.26,1429.53c0,7.48-6.06,13.54-13.54,13.54s-13.54-6.06-13.54-13.54,6.06-13.54,13.54-13.54,13.54,6.06,13.54,13.54"/>
          </g>
          <g id="path1471">
            <path class="cls-9" d="M1481.43,2027.32c0,7.48-6.06,13.54-13.54,13.54s-13.54-6.06-13.54-13.54,6.06-13.54,13.54-13.54,13.54,6.06,13.54,13.54"/>
            <path class="cls-5" d="M1481.43,2027.32c0,7.48-6.06,13.54-13.54,13.54s-13.54-6.06-13.54-13.54,6.06-13.54,13.54-13.54,13.54,6.06,13.54,13.54"/>
          </g>
          <g id="path1473">
            <path class="cls-9" d="M245.99,2309.74c0,7.48-6.06,13.54-13.54,13.54s-13.54-6.06-13.54-13.54,6.06-13.54,13.54-13.54,13.54,6.06,13.54,13.54"/>
            <path class="cls-5" d="M245.99,2309.74c0,7.48-6.06,13.54-13.54,13.54s-13.54-6.06-13.54-13.54,6.06-13.54,13.54-13.54,13.54,6.06,13.54,13.54"/>
          </g>
          <g id="path1478">
            <path class="cls-9" d="M1304.85,2149.56c0,7.48-6.06,13.54-13.54,13.54s-13.54-6.06-13.54-13.54,6.06-13.54,13.54-13.54,13.54,6.06,13.54,13.54"/>
            <path class="cls-5" d="M1304.85,2149.56c0,7.48-6.06,13.54-13.54,13.54s-13.54-6.06-13.54-13.54,6.06-13.54,13.54-13.54,13.54,6.06,13.54,13.54"/>
          </g>
          <g id="path1480">
            <path class="cls-9" d="M1399.93,2149.57c0,7.48-6.06,13.54-13.54,13.54s-13.54-6.06-13.54-13.54,6.06-13.54,13.54-13.54,13.54,6.06,13.54,13.54"/>
            <path class="cls-5" d="M1399.93,2149.57c0,7.48-6.06,13.54-13.54,13.54s-13.54-6.06-13.54-13.54,6.06-13.54,13.54-13.54,13.54,6.06,13.54,13.54"/>
          </g>
          <g id="path1491">
            <path class="cls-9" d="M933.22,2149.34c0,7.48-6.06,13.54-13.54,13.54s-13.54-6.06-13.54-13.54,6.06-13.54,13.54-13.54,13.54,6.06,13.54,13.54"/>
            <path class="cls-5" d="M933.22,2149.34c0,7.48-6.06,13.54-13.54,13.54s-13.54-6.06-13.54-13.54,6.06-13.54,13.54-13.54,13.54,6.06,13.54,13.54"/>
          </g>
          <g id="path1493">
            <path class="cls-9" d="M1464.85,2136.23c0,7.48-6.06,13.54-13.54,13.54s-13.54-6.06-13.54-13.54,6.06-13.54,13.54-13.54,13.54,6.06,13.54,13.54"/>
            <path class="cls-5" d="M1464.85,2136.23c0,7.48-6.06,13.54-13.54,13.54s-13.54-6.06-13.54-13.54,6.06-13.54,13.54-13.54,13.54,6.06,13.54,13.54"/>
          </g>
        </g>
      </g>
    </g>
  </g>
</svg>